# xmcd
#
# Track frame offsets:
#	150
#	19519
#	44287
#	69957
#	92442
#	129633
#	153690
#	173124
#	195229
#
# Disc length: 2845 seconds
#
# Revision: 3
# Processed by: cddbd v1.5.2PL0 Copyright (c) Steve Scherf et al.
# Submitted via: EZCDAudioConverter 8.0.2.1
#
DISCID=670b1b09
DTITLE=Hương Lan, Thanh Lan, Ngọc Lan, Ý Lan - Tứ Lan
DYEAR=1998
DGENRE=Vietnamese Pop
TTITLE0=Thanh Lan - Chìa khóa tình yêu
TTITLE1=Thanh Lan - Đêm hoa đăng
TTITLE2=Thanh Lan - Tình trong đôi mắt
TTITLE3=Ngọc Lan - Người ra đi
TTITLE4=Ngọc Lan - LK Búp bê không tình yêu, Búp bê bằng sứ
TTITLE5=Hương Lan - Ru con tình cũ
TTITLE6=Hương Lan - Tưởng rằng đã quên
TTITLE7=Hương Lan - Hạnh phúc lang thang
TTITLE8=Ý Lan - Hoa trắng thôi cài lên áo tím
EXTD=
EXTT0=
EXTT1=
EXTT2=
EXTT3=
EXTT4=
EXTT5=
EXTT6=
EXTT7=
EXTT8=
PLAYORDER=
